<svg aria-hidden="true" style="position: absolute; width: 0; height: 0; overflow: hidden;" version="1.1" xmlns="http://www.w3.org/2000/svg" xmlns:xlink="http://www.w3.org/1999/xlink">
<defs>
<symbol id="icon-search" viewBox="0 0 32 32">
<path d="M30.249 27.933l-6.476-6.479c1.942-2.53 2.848-5.704 2.536-8.878s-1.821-6.11-4.219-8.213c-2.398-2.103-5.506-3.215-8.694-3.111s-6.216 1.417-8.472 3.673c-2.255 2.255-3.568 5.284-3.673 8.472s1.008 6.296 3.111 8.694c2.103 2.398 5.039 3.906 8.213 4.219s6.348-0.594 8.878-2.536l6.481 6.483c0.152 0.152 0.333 0.273 0.532 0.355s0.412 0.125 0.627 0.125 0.428-0.042 0.627-0.125c0.199-0.082 0.38-0.203 0.532-0.355s0.273-0.333 0.355-0.532c0.082-0.199 0.125-0.412 0.125-0.627s-0.042-0.428-0.125-0.627c-0.082-0.199-0.203-0.38-0.355-0.532l-0.006-0.004zM4.545 13.818c0-1.834 0.544-3.627 1.563-5.152s2.467-2.713 4.161-3.415c1.694-0.702 3.559-0.885 5.358-0.528s3.451 1.241 4.748 2.538 2.18 2.949 2.538 4.748c0.358 1.799 0.174 3.663-0.528 5.358s-1.89 3.143-3.415 4.161c-1.525 1.019-3.318 1.563-5.152 1.563-2.459-0.002-4.816-0.98-6.554-2.719s-2.716-4.096-2.719-6.554z"></path>
</symbol>
<symbol id="icon-github" viewBox="0 0 34 32">
<path d="M16.263 0.558c-8.839 0-15.951 7.111-15.951 15.951 0 7.045 4.586 13.026 10.899 15.153 0.798 0.133 1.063-0.332 1.063-0.798 0-0.399 0-1.396 0-2.725-4.453 0.997-5.383-2.127-5.383-2.127-0.731-1.861-1.794-2.326-1.794-2.326-1.462-0.997 0.133-0.997 0.133-0.997 1.595 0.133 2.459 1.662 2.459 1.662 1.396 2.459 3.722 1.728 4.652 1.329 0.133-1.063 0.532-1.728 0.997-2.127-3.522-0.399-7.244-1.794-7.244-7.909 0-1.728 0.598-3.19 1.662-4.253-0.133-0.399-0.731-1.994 0.133-4.253 0 0 1.329-0.399 4.386 1.662 1.263-0.332 2.658-0.532 3.988-0.532s2.725 0.199 3.988 0.532c3.057-2.060 4.386-1.662 4.386-1.662 0.864 2.193 0.332 3.788 0.133 4.253 0.997 1.13 1.662 2.526 1.662 4.253 0 6.114-3.722 7.444-7.311 7.842 0.598 0.465 1.063 1.462 1.063 2.924 0 2.127 0 3.855 0 4.386 0 0.399 0.266 0.93 1.13 0.798 6.314-2.060 10.899-8.042 10.899-15.087 0-8.839-7.111-15.951-15.95-15.951z"></path>
</symbol>
<symbol id="icon-instagram" viewBox="0 0 32 32">
<path d="M16.002 3.308c4.134 0 4.624 0.015 6.257 0.090 0.982 0.012 1.955 0.192 2.875 0.533 0.668 0.258 1.274 0.652 1.781 1.158s0.901 1.113 1.158 1.781c0.341 0.921 0.521 1.894 0.533 2.876 0.074 1.633 0.090 2.123 0.090 6.257s-0.015 4.624-0.090 6.257c-0.012 0.982-0.192 1.954-0.533 2.876-0.257 0.668-0.652 1.274-1.158 1.781s-1.113 0.901-1.781 1.158c-0.921 0.341-1.893 0.521-2.875 0.533-1.632 0.074-2.122 0.090-6.257 0.090s-4.625-0.015-6.257-0.090c-0.982-0.012-1.955-0.192-2.876-0.533-0.668-0.258-1.274-0.652-1.781-1.158s-0.901-1.113-1.158-1.781c-0.341-0.921-0.521-1.894-0.533-2.876-0.074-1.633-0.090-2.123-0.090-6.257s0.015-4.624 0.090-6.257c0.012-0.982 0.192-1.955 0.533-2.876 0.258-0.668 0.652-1.274 1.158-1.781s1.113-0.901 1.781-1.158c0.921-0.341 1.894-0.521 2.876-0.533 1.633-0.074 2.123-0.090 6.257-0.090zM16.002 0.518c-4.203 0-4.732 0.018-6.384 0.093-1.285 0.026-2.557 0.269-3.76 0.72-1.033 0.389-1.968 0.999-2.741 1.787-0.788 0.773-1.399 1.709-1.788 2.742-0.451 1.204-0.694 2.475-0.72 3.76-0.074 1.65-0.091 2.18-0.091 6.382s0.018 4.732 0.093 6.384c0.026 1.285 0.269 2.557 0.72 3.76 0.389 1.033 0.999 1.969 1.787 2.742 0.773 0.788 1.709 1.398 2.742 1.787 1.204 0.451 2.475 0.694 3.76 0.72 1.652 0.074 2.179 0.093 6.384 0.093s4.732-0.018 6.384-0.093c1.285-0.025 2.557-0.269 3.76-0.72 1.028-0.399 1.962-1.007 2.741-1.787s1.388-1.714 1.786-2.743c0.451-1.204 0.694-2.475 0.72-3.76 0.074-1.65 0.091-2.18 0.091-6.382s-0.018-4.732-0.093-6.384c-0.026-1.285-0.269-2.557-0.72-3.76-0.389-1.033-0.999-1.969-1.787-2.742-0.773-0.788-1.709-1.398-2.742-1.787-1.204-0.451-2.475-0.694-3.76-0.72-1.65-0.074-2.18-0.091-6.382-0.091z"></path>
<path d="M16.005 8.054c-1.573 0-3.11 0.466-4.418 1.34s-2.327 2.116-2.929 3.568c-0.602 1.453-0.759 3.052-0.452 4.594s1.064 2.959 2.176 4.071c1.112 1.112 2.529 1.869 4.071 2.176s3.141 0.149 4.594-0.452c1.453-0.602 2.695-1.621 3.568-2.929s1.34-2.845 1.34-4.418c0-2.109-0.838-4.131-2.329-5.622s-3.514-2.329-5.622-2.329zM16.005 21.166c-1.021 0-2.019-0.303-2.867-0.87s-1.51-1.373-1.901-2.316c-0.391-0.943-0.493-1.981-0.294-2.982s0.691-1.921 1.413-2.643c0.722-0.722 1.641-1.213 2.643-1.413s2.039-0.097 2.982 0.294c0.943 0.391 1.749 1.052 2.316 1.901s0.87 1.847 0.87 2.867c0 1.369-0.544 2.682-1.512 3.65s-2.281 1.512-3.65 1.512z"></path>
<path d="M24.269 9.596c1.026 0 1.858-0.832 1.858-1.858s-0.832-1.858-1.858-1.858c-1.026 0-1.858 0.832-1.858 1.858s0.832 1.858 1.858 1.858z"></path>
</symbol>
<symbol id="icon-facebook" viewBox="0 0 20 32">
<path d="M6.668 30.286v-13.67h-4.6v-5.328h4.6v-3.929c0-4.559 2.785-7.042 6.852-7.042 1.948 0 3.623 0.145 4.111 0.21v4.765l-2.821 0.001c-2.212 0-2.64 1.051-2.64 2.594v3.401h5.276l-0.687 5.328h-4.589v13.67h-5.502z"></path>
</symbol>
<symbol id="icon-twitter" viewBox="0 0 38 32">
<path d="M35.863 6.346c-1.341 0.596-2.756 0.968-4.246 1.192 1.49-0.894 2.682-2.309 3.203-4.023-1.415 0.819-2.98 1.415-4.693 1.788-1.341-1.415-3.278-2.309-5.364-2.309-4.023 0-7.3 3.278-7.3 7.3 0 0.596 0.075 1.117 0.224 1.639-6.034-0.298-11.472-3.203-15.122-7.673-0.596 1.117-0.968 2.309-0.968 3.65 0 2.533 1.266 4.768 3.278 6.108-1.192-0.075-2.309-0.372-3.352-0.894v0.075c0 3.576 2.533 6.555 5.885 7.226-0.596 0.149-1.266 0.223-1.937 0.223-0.447 0-0.968-0.075-1.415-0.149 0.968 2.905 3.65 5.066 6.853 5.066-2.533 1.937-5.661 3.129-9.088 3.129-0.596 0-1.192 0-1.713-0.075 3.278 2.086 7.077 3.278 11.248 3.278 13.483 0 20.858-11.174 20.858-20.858 0-0.298 0-0.67 0-0.968 1.415-0.968 2.682-2.235 3.65-3.725z"></path>
</symbol>
<symbol id="icon-email" viewBox="0 0 44 32">
<path d="M40 0.25h-36c-0.597 0-1.169 0.237-1.591 0.659s-0.659 0.994-0.659 1.591v25.5c0 0.995 0.395 1.948 1.098 2.652s1.657 1.098 2.652 1.098h33c0.995 0 1.948-0.395 2.652-1.098s1.098-1.657 1.098-2.652v-25.5c0-0.597-0.237-1.169-0.659-1.591s-0.994-0.659-1.591-0.659zM22 15.947l-12.216-11.197h24.431l-12.216 11.197zM15.398 16l-9.148 8.385v-16.77l9.148 8.385zM18.728 19.052l1.751 1.607c0.415 0.381 0.958 0.592 1.521 0.592s1.106-0.211 1.521-0.592l1.751-1.607 8.944 8.198h-24.431l8.944-8.197zM28.602 16l9.148-8.385v16.77l-9.148-8.385z"></path>
</symbol>
<symbol id="icon-arrow-right" viewBox="0 0 40 32">
<path d="M24.592 0.908l13.5 13.5c0.21 0.209 0.376 0.457 0.49 0.731s0.172 0.567 0.172 0.863c0 0.296-0.058 0.589-0.172 0.863s-0.28 0.522-0.49 0.731l-13.5 13.5c-0.423 0.423-0.996 0.66-1.594 0.66s-1.171-0.237-1.594-0.66c-0.423-0.423-0.66-0.996-0.66-1.594s0.237-1.171 0.66-1.594l9.658-9.658h-27.563c-0.597 0-1.169-0.237-1.591-0.659s-0.659-0.994-0.659-1.591c0-0.597 0.237-1.169 0.659-1.591s0.994-0.659 1.591-0.659h27.563l-9.66-9.658c-0.423-0.423-0.66-0.996-0.66-1.594s0.237-1.171 0.66-1.594c0.423-0.423 0.996-0.66 1.594-0.66s1.171 0.237 1.594 0.66l0.002 0.004z"></path>
</symbol>
<symbol id="icon-arrow-left" viewBox="0 0 40 32">
<path d="M15.408 0.908l-13.5 13.5c-0.21 0.209-0.376 0.457-0.49 0.731s-0.172 0.567-0.172 0.863c0 0.296 0.058 0.589 0.172 0.863s0.28 0.522 0.49 0.731l13.5 13.5c0.423 0.423 0.996 0.66 1.594 0.66s1.171-0.237 1.594-0.66c0.423-0.423 0.66-0.996 0.66-1.594s-0.237-1.171-0.66-1.594l-9.658-9.658h27.563c0.597 0 1.169-0.237 1.591-0.659s0.659-0.994 0.659-1.591c0-0.597-0.237-1.169-0.659-1.591s-0.994-0.659-1.591-0.659h-27.563l9.66-9.658c0.423-0.423 0.66-0.996 0.66-1.594s-0.237-1.171-0.66-1.594c-0.423-0.423-0.996-0.66-1.594-0.66s-1.171 0.237-1.594 0.66l-0.002 0.004z"></path>
</symbol>
<symbol id="icon-mark" viewBox="0 0 30 32">
<path d="M15.238 1.263c-2.938 0-5.811 0.871-8.254 2.504s-4.348 3.953-5.472 6.668c-1.125 2.715-1.419 5.702-0.845 8.584s1.988 5.529 4.066 7.607c2.078 2.078 4.725 3.493 7.607 4.066s5.869 0.279 8.584-0.846c2.715-1.124 5.035-3.029 6.668-5.472s2.504-5.316 2.504-8.254c-0.004-3.939-1.571-7.716-4.356-10.501s-6.562-4.352-10.501-4.356zM21.761 13.501l-8 8c-0.106 0.106-0.232 0.191-0.371 0.248s-0.287 0.087-0.438 0.087-0.299-0.030-0.438-0.087c-0.139-0.057-0.265-0.142-0.371-0.248l-3.429-3.429c-0.214-0.214-0.335-0.505-0.335-0.809s0.12-0.594 0.335-0.809c0.214-0.215 0.505-0.335 0.809-0.335s0.594 0.12 0.809 0.335l2.62 2.621 7.191-7.193c0.106-0.106 0.232-0.19 0.371-0.248s0.288-0.087 0.438-0.087c0.15 0 0.299 0.030 0.438 0.087s0.265 0.142 0.371 0.248 0.19 0.232 0.248 0.371c0.057 0.139 0.087 0.287 0.087 0.438s-0.030 0.299-0.087 0.438c-0.057 0.139-0.142 0.265-0.248 0.371z"></path>
</symbol>
<symbol id="icon-calvin-klein" viewBox="0 0 196 32">
<path d="M16.122 28.661c-6.813 0-12.628-6.179-12.628-12.919 0-6.715 5.694-13.017 12.579-13.017 4.526 0 7.785 2.19 10.438 5.621h3.333c-0.998-1.801-2.068-3.455-3.698-4.745-2.798-2.263-6.424-3.6-10.024-3.6-8.638 0-15.669 7.129-15.669 15.718 0 8.613 7.129 15.669 15.718 15.669 3.504 0 6.935-1.289 9.684-3.455 1.728-1.387 2.944-3.187 4.112-5.037h-3.333c-2.629 3.431-5.986 5.766-10.512 5.766zM50.672 12.238c-2.092-2.701-4.939-4.404-8.467-4.404-6.326 0-11.533 5.135-11.533 11.461 0 6.325 5.232 11.508 11.533 11.508 3.674 0 6.228-1.533 8.467-4.356v3.844h2.749v-21.922h-2.749v3.869zM42.060 28.272c-4.843 0-8.663-4.209-8.663-8.953 0-4.721 3.796-8.954 8.663-8.954 4.841 0 8.613 4.234 8.613 8.954 0 4.744-3.796 8.953-8.613 8.953zM56.755 30.291h2.945v-29.66h-2.945v29.66zM70.818 26.811l-7.445-18.442h-2.92l8.93 21.922h2.968l8.906-21.922h-2.871l-7.567 18.442zM82.473 30.291h2.944v-21.922h-2.944v21.922zM82.473 5.547h2.944v-4.915h-2.944v4.915zM98.093 7.833c-2.774 0-4.744 1.461-6.569 3.407v-2.871h-2.726v21.922h2.895v-13.358c-0.024-3.528 2.896-6.568 6.448-6.568 4.452 0 6.69 3.869 6.69 7.859v12.068h2.725v-12.068c0.001-5.693-3.331-10.39-9.463-10.39zM134.881 0.631l-13.382 17.008v-17.008h-2.895v29.66h2.895v-8.151l3.796-4.72 9.659 12.87h3.675l-11.486-15.207 11.486-14.453h-3.749zM139.699 30.291h2.872v-29.66h-2.872v29.66zM166.342 13.892c-1.995-3.723-5.986-6.059-10.196-6.059-6.277 0-11.582 5.232-11.582 11.509 0 6.325 5.353 11.46 11.633 11.46 2.991 0 5.937-1.192 8.101-3.26 1.315-1.241 2.093-2.798 2.797-4.429h-3.089c-1.558 3.042-4.308 5.158-7.861 5.158-2.164 0-4.281-0.876-5.886-2.36-1.656-1.507-2.386-3.358-2.703-5.547h20.221c0.001-2.287-0.316-4.476-1.435-6.472zM147.655 17.834c0.878-4.111 4.112-7.469 8.542-7.469 3.722 0 7.713 2.288 8.588 7.469h-17.13zM169.919 30.291h2.894v-21.922h-2.894v21.922zM169.919 5.645h2.894v-5.013h-2.894v5.013zM185.54 7.833c-2.824 0-4.794 1.461-6.644 3.407v-2.871h-2.774v21.922h2.92v-13.358c-0.024-3.552 2.969-6.568 6.545-6.568 4.429 0 6.766 3.869 6.766 7.859v12.068h2.725v-12.068c0-5.693-3.384-10.39-9.538-10.39z"></path>
</symbol>
<symbol id="icon-prada" viewBox="0 0 195 32">
<path stroke-linejoin="miter" stroke-linecap="butt" stroke-miterlimit="2.613" stroke-width="1.0242" d="M0.482 0.902l25.136-0.071c3.834 0.69 7.137 4.16 7.198 9.569-0.192 5.582-4.191 8.343-8.081 9.638l-12.833-0.070 0.249 8.716 2.399 2.914-13.309-0.020 2.173-3.167v-24.202l-2.932-3.307zM11.427 2.45v15.548l9.846 0.071c2.24-1.807 3.939-3.19 3.871-7.528-0.032-3.537-0.779-6.621-4.075-8.091l-9.642-0.001zM38.975 0.725l25.135-0.070c3.835 0.69 7.138 4.16 7.198 9.568-0.193 5.582-4.191 8.343-8.081 9.638l-9.792-0.053 3.064 2.61h8.694l10.415 9.008-11.411 0.093-13.75-11.728h-0.053l0.249 8.716 2.399 2.914-13.309-0.019 2.173-3.168v-24.202l-2.932-3.308zM49.919 2.273v15.548l9.846 0.071c2.241-1.807 3.939-3.19 3.871-7.529-0.032-3.536-0.779-6.621-4.075-8.091h-9.642zM86.595 0.691l1.847 0.764 4.332 5.779v1.478l-10.252 21.599-2.717 0.844 6.247 0.141-1.019-0.985c-0.521-0.815 0.181-1.313 0.272-1.969l2.716-5.77 12.698-0.071 3.735 5.981 0.136 2.064-2.174 0.68h14.464c-1.291-0.939-3.224-0.674-3.871-2.815l-14.938-27.72h-11.476zM88.824 20.598l5.274-9.985 5.491 9.929-10.765 0.056zM164.197 0.751l1.847 0.764 4.332 5.778v1.479l-10.253 21.599-2.716 0.844 6.246 0.141-1.019-0.985c-0.52-0.815 0.181-1.313 0.272-1.971l2.716-5.768 12.698-0.071 3.735 5.979 0.136 2.064-2.174 0.681h14.465c-1.291-0.939-3.225-0.674-3.871-2.815l-14.939-27.72h-11.475zM166.425 20.659l5.274-9.985 5.492 9.928-10.766 0.058zM120.849 0.402l20.443 0.113c6.583 1.542 10.772 5.564 12.071 12.58l-0.055 5.472c-1.2 6.252-5.133 10.565-12.070 12.749l-20.498 0.058-0.003-0.662c3.116-0.235 3.365-0.591 3.373-2.441v-24.935c-0.035-1.368-0.308-2.219-3.316-2.313l0.055-0.62zM132.469 2.536l-0.019 26.978c2.696 0.009 5.035 0.262 6.356-0.413 2.995-1.368 4.385-3.468 4.513-5.441l-0.072-15.93c0.001-2.548-2.765-4.347-4.362-4.816-1.142-0.423-3.42-0.441-6.416-0.378z"></path>
</symbol>
<symbol id="icon-gucci" viewBox="0 0 148 32">
<path d="M133.453 9.688l-0.275 0.087c-1.066-2.206-2.591-3.961-4.572-5.267-1.951-1.306-4.405-1.959-7.362-1.959-1.646 0-3.216 0.334-4.71 1.001-1.494 0.639-2.805 1.553-3.932 2.743-1.097 1.161-1.982 2.568-2.652 4.223s-1.006 3.483-1.006 5.485c0 2.002 0.335 3.831 1.006 5.485s1.555 3.076 2.652 4.266c1.128 1.161 2.439 2.061 3.932 2.699s3.064 0.958 4.71 0.958c2.926 0 5.304-0.435 7.133-1.306 1.86-0.9 3.43-2.264 4.71-4.092l0.275 0.087-0.091 2.786c-0.701 0.696-1.509 1.32-2.424 1.872-0.915 0.522-1.905 0.972-2.972 1.35-1.036 0.348-2.119 0.609-3.246 0.784-1.128 0.203-2.256 0.305-3.384 0.305-2.347 0-4.587-0.363-6.721-1.088s-4.009-1.741-5.624-3.047c-1.616-1.335-2.896-2.931-3.841-4.789-0.945-1.886-1.418-3.976-1.418-6.269s0.473-4.368 1.418-6.225c0.945-1.886 2.225-3.497 3.841-4.832s3.49-2.351 5.624-3.047c2.134-0.726 4.374-1.088 6.721-1.088 1.128 0 2.256 0.087 3.384 0.261s2.21 0.45 3.246 0.827c1.067 0.348 2.057 0.798 2.972 1.35 0.915 0.522 1.722 1.132 2.424 1.828l0.183 4.615zM32.691 18.003c-0.335 0.145-0.655 0.334-0.96 0.566s-0.457 0.551-0.457 0.958v5.354c-1.463 2.003-3.338 3.555-5.624 4.658s-4.817 1.654-7.591 1.654c-2.347 0-4.588-0.363-6.722-1.088s-4.009-1.741-5.624-3.047c-1.616-1.335-2.896-2.931-3.841-4.789-0.945-1.886-1.417-3.976-1.417-6.269s0.472-4.368 1.417-6.225c0.945-1.886 2.225-3.497 3.841-4.832s3.49-2.351 5.624-3.047c2.134-0.726 4.374-1.088 6.722-1.088 1.128 0 2.256 0.087 3.384 0.261s2.21 0.45 3.247 0.827c1.067 0.348 2.058 0.798 2.972 1.35 0.915 0.522 1.722 1.132 2.424 1.828l0.183 4.614-0.274 0.087c-1.067-2.206-2.591-3.961-4.573-5.267-1.951-1.306-4.405-1.959-7.362-1.959-1.646 0-3.216 0.334-4.71 1.001-1.494 0.638-2.805 1.553-3.933 2.743-1.097 1.161-1.982 2.568-2.652 4.223s-1.006 3.483-1.006 5.485c0 1.973 0.32 3.787 0.96 5.441 0.671 1.654 1.555 3.076 2.652 4.266 1.128 1.161 2.439 2.075 3.932 2.742 1.494 0.639 3.079 0.958 4.755 0.958 3.17 0 5.883-0.58 8.139-1.741v-8.141c0-0.406-0.168-0.725-0.503-0.958-0.305-0.232-0.61-0.421-0.915-0.566l0.042-0.217c0.152 0.027 0.427 0.056 0.823 0.087 0.397 0.027 0.808 0.056 1.235 0.087h3.933c0.366-0.027 0.716-0.055 1.052-0.087 0.335-0.027 0.594-0.055 0.777-0.087l0.049 0.218zM65.811 1.722c-0.305 0.145-0.61 0.334-0.915 0.566s-0.473 0.667-0.503 1.306c-0.028 0.697-0.058 1.582-0.091 2.655 0 1.045-0.014 2.235-0.042 3.57 0 1.335-0.014 2.786-0.042 4.353v4.876c-0.028 1.886-0.272 3.497-0.732 4.832-0.457 1.335-1.067 2.452-1.829 3.352-0.732 0.9-1.555 1.611-2.469 2.133-0.884 0.522-1.768 0.914-2.652 1.175-0.854 0.29-1.661 0.464-2.423 0.522-0.762 0.087-1.357 0.131-1.783 0.131-1.737 0-3.414-0.218-5.030-0.653-1.616-0.406-3.033-1.074-4.252-2.003s-2.195-2.133-2.926-3.613c-0.732-1.48-1.097-3.279-1.097-5.398v-9.447c0-1.393-0.014-2.641-0.042-3.744 0-1.132-0.014-2.046-0.042-2.743-0.028-0.639-0.195-1.074-0.503-1.306-0.305-0.232-0.61-0.421-0.915-0.566l0.042-0.217c0.152 0.027 0.396 0.055 0.732 0.087 0.366 0.027 0.732 0.055 1.097 0.087 0.397 0 0.778 0.013 1.143 0.040h1.646c0.366-0.027 0.747-0.040 1.143-0.040 0.397-0.027 0.762-0.055 1.097-0.087 0.366-0.027 0.625-0.055 0.777-0.087l0.042 0.217c-0.335 0.145-0.655 0.334-0.96 0.566-0.274 0.232-0.427 0.667-0.458 1.306-0.028 0.697-0.058 1.611-0.091 2.743v13.19c0 3.163 0.777 5.499 2.332 7.009s3.856 2.264 6.905 2.264c0.884 0 1.89-0.102 3.018-0.305 1.128-0.232 2.18-0.696 3.155-1.393 1.006-0.697 1.844-1.683 2.515-2.96 0.701-1.277 1.052-2.975 1.052-5.093 0-2.293-0.014-4.252-0.042-5.877 0-1.654-0.014-3.062-0.042-4.223 0-1.19-0.014-2.206-0.042-3.047s-0.058-1.611-0.091-2.307c-0.028-0.639-0.195-1.074-0.503-1.306-0.305-0.232-0.61-0.421-0.914-0.566l0.042-0.217c0.335 0.058 0.716 0.116 1.143 0.174 0.427 0.027 0.823 0.040 1.189 0.040 0.335 0 0.716-0.013 1.143-0.040 0.457-0.058 0.854-0.116 1.189-0.174l0.029 0.218zM98.991 9.688l-0.275 0.087c-1.066-2.206-2.591-3.961-4.572-5.267-1.951-1.306-4.405-1.959-7.362-1.959-1.646 0-3.216 0.334-4.71 1.001-1.494 0.639-2.805 1.553-3.932 2.743-1.097 1.161-1.981 2.568-2.652 4.223s-1.006 3.483-1.006 5.485 0.335 3.831 1.006 5.485c0.671 1.654 1.555 3.076 2.652 4.266 1.128 1.161 2.439 2.061 3.932 2.699s3.064 0.958 4.71 0.958c2.927 0 5.304-0.435 7.133-1.306 1.86-0.9 3.43-2.264 4.71-4.092l0.275 0.087-0.091 2.786c-0.701 0.696-1.51 1.32-2.424 1.872-0.915 0.522-1.906 0.972-2.972 1.35-1.036 0.348-2.119 0.609-3.247 0.784-1.128 0.203-2.256 0.305-3.384 0.305-2.347 0-4.588-0.363-6.722-1.088s-4.009-1.741-5.624-3.047c-1.616-1.335-2.896-2.931-3.841-4.789-0.945-1.886-1.418-3.976-1.418-6.269s0.472-4.368 1.418-6.225c0.945-1.886 2.225-3.497 3.841-4.832s3.49-2.351 5.624-3.047c2.134-0.726 4.374-1.088 6.722-1.088 1.128 0 2.256 0.087 3.384 0.261s2.21 0.45 3.247 0.827c1.067 0.348 2.058 0.798 2.972 1.35 0.914 0.522 1.722 1.132 2.424 1.828l0.183 4.615zM147.235 30.453c-0.152-0.027-0.411-0.056-0.776-0.087-0.335 0-0.701-0.013-1.097-0.040-0.397 0-0.778-0.013-1.144-0.040h-2.744c-0.365 0.027-0.731 0.055-1.097 0.087-0.335 0.027-0.594 0.055-0.776 0.087l-0.042-0.174c0.305-0.145 0.61-0.334 0.915-0.566s0.472-0.667 0.503-1.306c0.028-0.697 0.041-1.422 0.041-2.177 0.028-0.755 0.042-1.611 0.042-2.568v-15.367c0-0.958-0.014-1.799-0.042-2.525 0-0.755-0.013-1.48-0.041-2.177-0.028-0.639-0.196-1.074-0.503-1.306-0.305-0.261-0.61-0.464-0.915-0.609l0.042-0.174c0.183 0.058 0.441 0.101 0.776 0.131 0.366 0 0.732 0.013 1.097 0.040 0.396 0.027 0.777 0.040 1.144 0.040h1.6c0.366-0.027 0.747-0.040 1.144-0.040 0.396-0.027 0.762-0.055 1.097-0.087 0.365-0.027 0.624-0.055 0.776-0.087l0.042 0.174c-0.335 0.145-0.655 0.348-0.961 0.609-0.274 0.232-0.426 0.667-0.457 1.306-0.027 0.697-0.058 1.422-0.091 2.177v20.46c0.028 0.755 0.058 1.48 0.091 2.177 0.028 0.639 0.181 1.074 0.457 1.306 0.306 0.232 0.626 0.421 0.961 0.566l-0.042 0.17z"></path>
</symbol>
<symbol id="icon-zara" viewBox="0 0 77 32">
<path d="M73.107 31.047l-11.361-31.040h-0.224l-6.594 17.979-0.010-0.009c-1.475-1.292-3.556-2.099-6.178-2.4l-0.799-0.082 0.793-0.101c4.322-0.771 7.228-3.48 7.228-6.744 0-4.476-4.242-7.6-10.319-7.6h-12.643v0.227h3.674v23.127l-8.93-24.398h-0.224l-11.356 30.96-0.055 0.006c-0.154 0.019-0.307 0.034-0.457 0.045-0.227 0.018-0.452 0.028-0.679 0.028h-9.111l17.448-29.993h-21.183v9.209h0.225c0.040-4.486 2.672-8.985 8.489-8.985h7.017l-17.451 29.993h23.509v-8.823h-0.225c-0.031 3.91-2.264 7.623-7.121 8.462l-0.154 0.026 3.699-10.089h10.361l3.733 10.201h-3.683v0.223h14.455v-0.223h-3.699v-15.387h4.268c4.343 0 6.834 1.925 6.834 5.281v2.73c0 0.301 0.021 0.74 0.043 1.108v0.013l-2.294 6.254h-2.997v0.223h6.203v-0.223h-2.964l2.089-5.695c0.004 0.055 0.006 0.088 0.006 0.088l0.058 0.513 0.056 0.339c0.349 2.1 1.158 3.644 2.405 4.588l0.179 0.129c0.947 0.654 2.125 0.985 3.501 0.985 1.823 0 3.039-0.451 4.042-1.513l-0.132-0.123c-0.925 0.847-1.701 1.19-2.673 1.19-1.657 0-2.524-1.994-2.524-3.96v-3.824c0.009-0.949-0.141-1.893-0.443-2.793l-0.041-0.119v-0.004h7.579l3.733 10.201h-3.683v0.223h12.509v-0.223l-3.931-0.001zM20.196 20.623l5.104-13.916 5.093 13.916h-10.197zM41.285 15.436v-14.159h3.258c4.352 0 6.649 2.567 6.649 7.421 0 5.163-1.319 6.737-5.641 6.737h-4.266zM56.81 20.623l-0.022-0.055c-0.337-0.814-0.827-1.557-1.445-2.188l-0.213-0.212-0.023-0.021 4.192-11.44 5.093 13.916h-7.582z"></path>
</symbol>
<symbol id="icon-versace" viewBox="0 0 157 32">
<path d="M141.345 0.617h15.344v2.445c-0.446-0.15-0.913-0.227-1.383-0.228h-8.82v11.424h8.58c0.616 0 1.165-0.068 1.622-0.183v2.434c-0.389-0.091-0.924-0.137-1.588-0.137h-8.614v11.813h8.556c0.47 0 1.029-0.068 1.645-0.217v2.628h-15.32c0.122-0.462 0.184-0.938 0.184-1.416v-27.112c0-0.594-0.069-1.085-0.206-1.451zM137.793 8.397l-4.433-0.034c-0.217-2.491-1.645-4.903-4.787-5.347-6.729-0.606-8.626 6.785-8.455 12.19 0.172 5.209 1.005 13.218 7.952 13.218 2.914 0 5.712-2.994 5.621-5.518l4.102-0.034c-0.297 5.209-6.272 8.225-9.117 8.328-9.721 0.332-13.79-6.147-13.995-15.39-0.183-8.373 3.245-15.811 12.853-15.811 8.226 0.115 9.814 4.982 10.26 8.397zM68.65 27.191l2.937-2.456c1.53 2.525 2.787 3.678 5.826 3.678 3.084 0 5.678-1.873 5.678-5.186 0-1.634-0.663-2.971-1.977-3.976-0.595-0.469-2.103-1.28-4.479-2.411-3.553-1.702-7.014-3.919-7.014-8.374 0-5.621 4.775-8.101 9.813-8.284 2.982-0.114 6.684 1.532 8.18 3.382l-2.982 2.296c-0.532-0.992-1.322-1.822-2.288-2.401s-2.070-0.886-3.196-0.888c-3.805 0-6.821 4.41-3.668 7.449 0.799 0.777 2.434 1.736 4.925 2.878 3.975 1.863 7.368 4.090 7.368 9.014 0 1.702-0.446 3.29-1.325 4.741-1.77 2.925-4.73 4.387-8.865 4.387-4.753 0-5.689-1.085-8.935-3.851zM26.813 0.617h15.331v2.445c-0.445-0.15-0.912-0.227-1.382-0.228h-8.819v11.424h8.58c0.617 0 1.166-0.068 1.622-0.183v2.434c-0.389-0.091-0.925-0.137-1.576-0.137h-8.626v11.813h8.557c0.468 0 1.029-0.068 1.645-0.217v2.628h-15.308c0.112-0.464 0.169-0.939 0.171-1.416v-27.112c0-0.594-0.069-1.085-0.194-1.451zM0 0.617h5.575v0.275c0 0.251 0.080 0.582 0.217 1.005l7.859 23.66 8.066-23.764c0.125-0.399 0.194-0.788 0.194-1.177h2.708c-0.274 0.48-0.48 0.903-0.606 1.28l-9.209 27.477c-0.091 0.263-0.171 0.674-0.239 1.223h-4.57c-0.069-0.415-0.172-0.824-0.308-1.223l-9.025-27.26c-0.208-0.503-0.426-1.002-0.652-1.497h-0.011zM59.214 16.247c3.656-0.72 6.455-3.519 6.455-7.518 0-5.245-4.387-8.113-9.3-8.113h-8.98c0.125 0.458 0.194 0.937 0.194 1.44v27.099c0 0.583-0.069 1.074-0.194 1.44h5.347c-0.131-0.469-0.196-0.953-0.194-1.44v-12.452l1.713 0.183 8.958 13.709h5.381l-9.38-14.349zM58.288 13.962c-0.971 0.685-2.137 1.027-3.473 1.027h-2.285v-12.188h2.045c1.749 0 3.108 0.433 4.079 1.301 1.325 1.201 1.999 2.823 1.999 4.856 0 2.194-0.789 3.862-2.365 5.004zM113.789 29.351l-9.984-27.739c-0.111-0.321-0.177-0.655-0.195-0.994h-4.319c0 0.354-0.057 0.731-0.195 1.108l-9.676 27.626c-0.127 0.399-0.332 0.811-0.606 1.245h2.787c-0.011-0.457 0.046-0.88 0.172-1.245l2.866-8.147h11.025l2.834 8.147c0.149 0.444 0.216 0.856 0.216 1.244h5.782c-0.332-0.468-0.571-0.891-0.709-1.245zM95.396 18.999l4.661-13.538 4.788 13.538h-9.448z"></path>
</symbol>
<symbol id="icon-star" viewBox="0 0 32 32">
<path d="M16 23l9 6-4-10 9-6h-10l-4-10-4 10h-10l9 6-4 10 9-6zM16 21.753l-6.8 4.547 3.2-7.7-7.2-4.6h7.5l3.3-8.5 3.3 8.5h7.5l-7.2 4.6 3.2 7.7-6.8-4.547z"></path>
</symbol>
<symbol id="icon-account" viewBox="0 0 32 32">
<path d="M16 1.273c-2.913 0-5.76 0.864-8.182 2.482s-4.31 3.918-5.424 6.609c-1.115 2.691-1.406 5.652-0.838 8.509s1.971 5.481 4.031 7.541 4.684 3.462 7.541 4.031c2.857 0.568 5.818 0.276 8.509-0.838s4.991-3.002 6.609-5.424c1.618-2.422 2.482-5.269 2.482-8.182-0.004-3.905-1.557-7.648-4.318-10.409s-6.504-4.314-10.409-4.318zM9.396 25.35c0.76-1.039 1.754-1.884 2.901-2.466s2.416-0.886 3.703-0.886c1.287 0 2.556 0.304 3.703 0.886s2.142 1.427 2.901 2.466c-1.93 1.369-4.238 2.104-6.604 2.104s-4.674-0.735-6.604-2.104zM12.182 14.909c0-0.755 0.224-1.493 0.643-2.121s1.016-1.117 1.714-1.406c0.698-0.289 1.465-0.365 2.206-0.217s1.421 0.511 1.955 1.045c0.534 0.534 0.898 1.214 1.045 1.955s0.072 1.508-0.217 2.206c-0.289 0.698-0.778 1.294-1.406 1.714s-1.366 0.643-2.121 0.643c-1.013 0-1.984-0.402-2.7-1.118s-1.118-1.687-1.118-2.7zM25 23.083c-1.061-1.349-2.413-2.441-3.954-3.194 0.983-0.995 1.649-2.259 1.916-3.632s0.121-2.794-0.419-4.085c-0.539-1.29-1.448-2.393-2.612-3.168s-2.532-1.189-3.93-1.189-2.766 0.414-3.93 1.189c-1.164 0.775-2.073 1.877-2.612 3.168s-0.685 2.712-0.419 4.085c0.266 1.373 0.933 2.637 1.916 3.632-1.542 0.753-2.894 1.845-3.955 3.194-1.332-1.689-2.162-3.719-2.394-5.857s0.142-4.299 1.080-6.235c0.938-1.935 2.403-3.568 4.226-4.71s3.93-1.748 6.081-1.748c2.151 0 4.259 0.606 6.081 1.748s3.287 2.774 4.226 4.71c0.938 1.936 1.313 4.096 1.080 6.235s-1.062 4.168-2.394 5.857h0.014z"></path>
</symbol>
<symbol id="icon-basket" viewBox="0 0 33 32">
<path d="M13.636 28c0 0.539-0.16 1.067-0.46 1.515s-0.726 0.798-1.224 1.005c-0.498 0.206-1.047 0.26-1.576 0.155s-1.015-0.365-1.396-0.746-0.641-0.867-0.746-1.396c-0.105-0.529-0.051-1.077 0.155-1.576s0.556-0.924 1.004-1.224c0.448-0.3 0.976-0.46 1.515-0.46 0.723 0 1.417 0.287 1.928 0.799s0.799 1.205 0.799 1.928zM25.091 25.273c-0.539 0-1.067 0.16-1.515 0.46s-0.798 0.726-1.005 1.224c-0.206 0.498-0.26 1.047-0.155 1.576s0.365 1.015 0.746 1.396 0.867 0.641 1.396 0.746c0.529 0.105 1.077 0.051 1.576-0.155s0.924-0.556 1.224-1.005c0.3-0.448 0.46-0.976 0.46-1.515 0-0.723-0.287-1.417-0.799-1.928s-1.205-0.799-1.928-0.799zM32.11 8.845l-3.721 12.095c-0.238 0.782-0.721 1.467-1.379 1.953s-1.454 0.746-2.272 0.743h-13.429c-0.829-0.003-1.635-0.274-2.297-0.773s-1.144-1.2-1.375-1.996l-4.662-16.321h-1.338c-0.434 0-0.85-0.172-1.157-0.479s-0.479-0.723-0.479-1.157c0-0.434 0.172-0.85 0.479-1.157s0.723-0.479 1.157-0.479h1.748c0.592 0.002 1.168 0.196 1.641 0.552s0.817 0.857 0.981 1.426l0.994 3.476h23.545c0.256 0 0.509 0.060 0.737 0.175s0.427 0.283 0.579 0.489 0.254 0.445 0.297 0.697c0.043 0.252 0.026 0.511-0.049 0.756zM28.33 10h-20.395l2.849 9.968c0.033 0.114 0.101 0.214 0.196 0.286s0.21 0.11 0.329 0.11h13.429c0.117 0 0.23-0.037 0.325-0.106s0.163-0.167 0.198-0.278l3.070-9.979z"></path>
</symbol>
</defs>
</svg>
