<svg aria-hidden="true" style="position: absolute; width: 0; height: 0; overflow: hidden;" version="1.1" xmlns="http://www.w3.org/2000/svg" xmlns:xlink="http://www.w3.org/1999/xlink">
<defs>
<symbol id="icon-g-pay" viewBox="0 0 71 32">
<path fill="#3c4043" style="fill: var(--color1, #3c4043)" d="M33.849 23.666h-2.581v-20.082h6.842c1.734 0 3.213 0.578 4.422 1.734 1.237 1.156 1.855 2.567 1.855 4.234 0 1.707-0.618 3.118-1.855 4.261-1.196 1.143-2.675 1.707-4.422 1.707h-4.261v8.146zM33.849 6.057v7.003h4.315c1.022 0 1.882-0.35 2.554-1.035 0.685-0.686 1.035-1.519 1.035-2.46 0-0.927-0.35-1.747-1.035-2.433-0.672-0.712-1.519-1.062-2.554-1.062h-4.315v-0.013z"></path>
<path fill="#3c4043" style="fill: var(--color1, #3c4043)" d="M51.134 9.472c1.909 0 3.414 0.511 4.516 1.532s1.653 2.42 1.653 4.194v8.468h-2.46v-1.909h-0.108c-1.062 1.573-2.487 2.352-4.261 2.352-1.519 0-2.783-0.444-3.804-1.344s-1.532-2.016-1.532-3.36c0-1.425 0.538-2.554 1.613-3.387 1.075-0.847 2.513-1.264 4.301-1.264 1.532 0 2.796 0.282 3.777 0.847v-0.591c0-0.901-0.35-1.653-1.062-2.285s-1.546-0.941-2.5-0.941c-1.438 0-2.581 0.605-3.414 1.828l-2.272-1.425c1.25-1.815 3.105-2.715 5.551-2.715zM47.801 19.445c0 0.672 0.282 1.237 0.86 1.68 0.564 0.444 1.237 0.672 2.003 0.672 1.089 0 2.057-0.403 2.903-1.21s1.277-1.747 1.277-2.836c-0.807-0.632-1.922-0.954-3.361-0.954-1.048 0-1.922 0.255-2.621 0.753-0.712 0.524-1.062 1.156-1.062 1.895z"></path>
<path fill="#3c4043" style="fill: var(--color1, #3c4043)" d="M71.337 9.915l-8.603 19.786h-2.661l3.199-6.922-5.672-12.864h2.809l4.086 9.866h0.054l3.979-9.866h2.809z"></path>
<path fill="#4285f4" style="fill: var(--color2, #4285f4)" d="M23.583 13.894c0-0.841-0.075-1.647-0.215-2.421h-10.818v4.436l6.23 0.001c-0.253 1.476-1.066 2.734-2.312 3.573v2.878h3.709c2.165-2.004 3.406-4.967 3.406-8.467z"></path>
<path fill="#34a853" style="fill: var(--color3, #34a853)" d="M16.47 19.483c-1.032 0.696-2.362 1.104-3.917 1.104-3.004 0-5.553-2.024-6.465-4.753h-3.825v2.968c1.895 3.761 5.791 6.342 10.291 6.342 3.11 0 5.723-1.023 7.625-2.784l-3.709-2.877z"></path>
<path fill="#fabb05" style="fill: var(--color4, #fabb05)" d="M5.727 13.632c0-0.766 0.128-1.507 0.36-2.203v-2.968h-3.825c-0.784 1.555-1.225 3.311-1.225 5.171s0.442 3.616 1.225 5.171l3.825-2.968c-0.233-0.696-0.36-1.437-0.36-2.203z"></path>
<path fill="#e94235" style="fill: var(--color5, #e94235)" d="M12.553 6.676c1.698 0 3.218 0.585 4.418 1.727l3.286-3.284c-1.996-1.859-4.598-3-7.705-3-4.499 0-8.396 2.581-10.291 6.342l3.825 2.968c0.913-2.729 3.461-4.753 6.466-4.753z"></path>
</symbol>
<symbol id="icon-a-pay" viewBox="0 0 75 32">
<path d="M15.786 5.551c0.829-1.037 1.392-2.43 1.244-3.853-1.214 0.060-2.695 0.801-3.553 1.839-0.77 0.889-1.452 2.34-1.274 3.704 1.363 0.118 2.724-0.681 3.583-1.689z"></path>
<path d="M17.015 7.507c-1.979-0.118-3.662 1.123-4.607 1.123s-2.393-1.064-3.958-1.035c-2.037 0.030-3.928 1.182-4.962 3.014-2.127 3.665-0.561 9.102 1.507 12.087 1.004 1.477 2.215 3.103 3.809 3.044 1.507-0.059 2.097-0.976 3.929-0.976 1.83 0 2.362 0.976 3.957 0.946 1.654-0.030 2.688-1.478 3.692-2.956 1.152-1.684 1.624-3.309 1.653-3.398-0.030-0.030-3.189-1.242-3.219-4.876-0.030-3.043 2.481-4.491 2.599-4.581-1.418-2.097-3.633-2.333-4.401-2.393z"></path>
<path d="M34.247 3.388c4.302 0 7.297 2.965 7.297 7.282 0 4.332-3.057 7.313-7.405 7.313h-4.763v7.574h-3.441v-22.169h8.311zM29.376 15.094h3.948c2.996 0 4.701-1.613 4.701-4.409s-1.705-4.394-4.686-4.394h-3.964v8.803z"></path>
<path d="M42.442 20.963c0-2.827 2.166-4.563 6.007-4.778l4.424-0.261v-1.244c0-1.798-1.214-2.873-3.241-2.873-1.921 0-3.119 0.922-3.411 2.366h-3.134c0.184-2.919 2.673-5.070 6.667-5.070 3.918 0 6.422 2.074 6.422 5.316v11.138h-3.18v-2.658h-0.077c-0.937 1.798-2.98 2.934-5.1 2.934-3.165 0-5.377-1.966-5.377-4.87zM52.874 19.504v-1.275l-3.979 0.246c-1.982 0.138-3.103 1.014-3.103 2.397 0 1.413 1.167 2.335 2.95 2.335 2.319 0 4.133-1.598 4.133-3.702z"></path>
<path d="M59.179 31.502v-2.689c0.245 0.061 0.798 0.061 1.075 0.061 1.536 0 2.366-0.645 2.873-2.304 0-0.031 0.292-0.983 0.292-0.999l-5.838-16.177h3.594l4.087 13.151h0.061l4.087-13.151h3.503l-6.054 17.007c-1.382 3.918-2.98 5.178-6.329 5.178-0.277 0-1.106-0.031-1.352-0.077z"></path>
</symbol>
<symbol id="icon-paypal" viewBox="0 0 112 32">
<path fill="#253b80" style="fill: var(--color6, #253b80)" d="M14.162 2.067h-8.6c-0.588 0-1.089 0.428-1.181 1.008l-3.478 22.050c-0.069 0.435 0.268 0.827 0.709 0.827h4.106c0.588 0 1.089-0.428 1.181-1.010l0.938-5.947c0.090-0.582 0.592-1.010 1.18-1.010h2.722c5.665 0 8.934-2.741 9.789-8.173 0.385-2.376 0.016-4.244-1.097-5.552-1.222-1.435-3.39-2.195-6.269-2.195zM15.154 10.121c-0.47 3.086-2.828 3.086-5.108 3.086h-1.298l0.91-5.763c0.054-0.348 0.356-0.605 0.708-0.605h0.595c1.553 0 3.018 0 3.775 0.885 0.451 0.528 0.589 1.313 0.417 2.397zM39.87 10.022h-4.118c-0.351 0-0.654 0.257-0.708 0.605l-0.182 1.152-0.288-0.417c-0.892-1.294-2.879-1.726-4.864-1.726-4.551 0-8.438 3.446-9.195 8.281-0.393 2.411 0.166 4.717 1.534 6.325 1.255 1.479 3.051 2.095 5.187 2.095 3.667 0 5.701-2.358 5.701-2.358l-0.184 1.145c-0.069 0.438 0.268 0.83 0.707 0.83h3.71c0.59 0 1.088-0.428 1.181-1.010l2.226-14.094c0.070-0.434-0.265-0.827-0.705-0.827zM34.129 18.036c-0.397 2.352-2.265 3.932-4.646 3.932-1.196 0-2.152-0.383-2.765-1.11-0.609-0.722-0.84-1.749-0.647-2.893 0.371-2.333 2.27-3.963 4.615-3.963 1.169 0 2.12 0.388 2.746 1.121 0.627 0.741 0.876 1.774 0.697 2.913zM57.665 10.021h4.139c0.58 0 0.918 0.65 0.588 1.125l-13.764 19.866c-0.223 0.322-0.59 0.513-0.982 0.513h-4.133c-0.582 0-0.922-0.655-0.585-1.132l4.286-6.049-4.558-13.376c-0.157-0.465 0.186-0.948 0.68-0.948h4.067c0.529 0 0.995 0.347 1.147 0.852l2.419 8.079 5.708-8.407c0.224-0.328 0.595-0.524 0.989-0.524z"></path>
<path fill="#179bd7" style="fill: var(--color7, #179bd7)" d="M102.537 25.124l3.53-22.454c0.054-0.349 0.356-0.605 0.707-0.606h3.973c0.439 0 0.776 0.393 0.707 0.829l-3.481 22.049c-0.091 0.582-0.591 1.010-1.18 1.010h-3.549c-0.439 0-0.776-0.392-0.707-0.827zM75.507 2.065h-8.602c-0.587 0-1.088 0.428-1.18 1.008l-3.478 22.050c-0.069 0.435 0.268 0.827 0.707 0.827h4.413c0.41 0 0.761-0.299 0.825-0.706l0.987-6.25c0.091-0.582 0.592-1.010 1.18-1.010h2.721c5.666 0 8.935-2.741 9.79-8.173 0.386-2.376 0.015-4.244-1.098-5.552-1.221-1.435-3.388-2.195-6.266-2.195zM76.499 10.119c-0.469 3.086-2.827 3.086-5.108 3.086h-1.297l0.912-5.763c0.054-0.348 0.353-0.605 0.707-0.605h0.595c1.552 0 3.019 0 3.775 0.885 0.452 0.528 0.589 1.313 0.417 2.397zM101.212 10.020h-4.116c-0.354 0-0.654 0.257-0.707 0.605l-0.182 1.152-0.289-0.417c-0.892-1.294-2.878-1.726-4.862-1.726-4.551 0-8.437 3.446-9.194 8.281-0.392 2.411 0.164 4.717 1.533 6.325 1.257 1.479 3.051 2.095 5.187 2.095 3.667 0 5.7-2.358 5.7-2.358l-0.183 1.145c-0.069 0.438 0.268 0.83 0.709 0.83h3.708c0.587 0 1.088-0.428 1.18-1.010l2.227-14.094c0.068-0.434-0.269-0.827-0.71-0.827zM95.472 18.035c-0.395 2.352-2.265 3.932-4.647 3.932-1.194 0-2.152-0.383-2.765-1.11-0.609-0.721-0.837-1.749-0.646-2.893 0.373-2.333 2.27-3.963 4.615-3.963 1.17 0 2.12 0.388 2.747 1.121 0.629 0.741 0.879 1.774 0.697 2.913z"></path>
</symbol>
<symbol id="icon-mastercard" viewBox="0 0 52 32">
<path fill="#ff5f00" style="fill: var(--color8, #ff5f00)" d="M32.54 3.697h-13.727v24.667h13.727v-24.667z"></path>
<path fill="#eb001b" style="fill: var(--color9, #eb001b)" d="M19.685 16.030c-0.002-2.376 0.536-4.721 1.574-6.857s2.549-4.009 4.417-5.476c-2.314-1.819-5.094-2.95-8.020-3.264s-5.883 0.202-8.53 1.488-4.88 3.292-6.441 5.787c-1.562 2.495-2.39 5.379-2.39 8.323s0.828 5.828 2.39 8.323c1.562 2.495 3.794 4.501 6.441 5.787s5.604 1.802 8.53 1.488c2.927-0.314 5.706-1.445 8.020-3.264-1.869-1.467-3.379-3.339-4.417-5.476s-1.576-4.482-1.574-6.857z"></path>
<path fill="#f79e1b" style="fill: var(--color10, #f79e1b)" d="M51.058 16.030c0 2.944-0.828 5.828-2.39 8.323s-3.794 4.501-6.441 5.787c-2.648 1.286-5.604 1.802-8.53 1.488s-5.706-1.445-8.020-3.264c1.867-1.468 3.377-3.341 4.414-5.478s1.577-4.481 1.577-6.856-0.539-4.719-1.577-6.856c-1.038-2.136-2.547-4.009-4.414-5.478 2.314-1.819 5.093-2.95 8.020-3.264s5.883 0.202 8.53 1.488c2.647 1.286 4.88 3.292 6.441 5.787s2.39 5.379 2.39 8.323z"></path>
<path fill="#f79e1b" style="fill: var(--color10, #f79e1b)" d="M49.561 25.751v-0.505h0.204v-0.103h-0.519v0.103h0.204v0.505h0.111zM50.568 25.751v-0.609h-0.159l-0.183 0.419-0.183-0.419h-0.159v0.609h0.112v-0.459l0.171 0.396h0.116l0.172-0.397v0.46h0.112z"></path>
</symbol>
<symbol id="icon-visa" viewBox="0 0 91 32">
<path fill="#1434cb" style="fill: var(--color11, #1434cb)" d="M45.392 2.989l-5.798 27.103h-7.011l5.799-27.103h7.010zM74.89 20.49l3.691-10.178 2.124 10.178h-5.815zM82.713 30.092h6.485l-5.659-27.103h-5.986c-1.345 0-2.48 0.782-2.985 1.988l-10.518 25.114h7.363l1.462-4.047h8.995l0.844 4.047zM64.414 21.243c0.030-7.153-9.892-7.547-9.824-10.742 0.021-0.974 0.948-2.006 2.973-2.271 1.006-0.131 3.773-0.232 6.914 1.214l1.23-5.747c-1.687-0.612-3.858-1.202-6.559-1.202-6.929 0-11.807 3.684-11.848 8.96-0.044 3.901 3.482 6.078 6.138 7.376 2.731 1.329 3.649 2.18 3.637 3.368-0.018 1.819-2.179 2.621-4.195 2.652-3.526 0.056-5.571-0.951-7.202-1.711l-1.27 5.939c1.638 0.752 4.661 1.406 7.798 1.439 7.364 0 12.183-3.639 12.207-9.273zM35.374 2.989l-11.359 27.103h-7.412l-5.59-21.63c-0.34-1.332-0.635-1.819-1.667-2.381-1.684-0.914-4.468-1.772-6.917-2.304l0.167-0.788h11.93c1.52 0 2.888 1.012 3.233 2.763l2.953 15.684 7.296-18.447h7.366z"></path>
</symbol>
</defs>
</svg>
